<svg id="discover_bold" data-name="discover/bold" xmlns="http://www.w3.org/2000/svg" width="24" height="24" viewBox="0 0 24 24">
  <g id="vuesax_bold_discover" data-name="vuesax/bold/discover">
    <path id="Vector" d="M10,0A10,10,0,1,0,20,10,10.016,10.016,0,0,0,10,0ZM8.5,14.13a2.623,2.623,0,0,1-2.62-2.62A5.625,5.625,0,0,1,11.5,5.89a2.623,2.623,0,0,1,2.62,2.62A5.631,5.631,0,0,1,8.5,14.13Z" transform="translate(2 2)"/>
    <path id="Vector-2" data-name="Vector" d="M0,0H24V24H0Z" fill="none" opacity="0"/>
    <path id="Vector-3" data-name="Vector" d="M0,0H24V24H0Z" transform="translate(24 24) rotate(180)" fill="none" opacity="0"/>
  </g>
</svg>
