<svg id="gallery-add_linear" data-name="gallery-add/linear" xmlns="http://www.w3.org/2000/svg" width="24" height="24" viewBox="0 0 24 24">
  <g id="vuesax_linear_gallery-add" data-name="vuesax/linear/gallery-add">
    <g id="gallery-add">
      <path id="Vector" d="M4,2A2,2,0,1,1,2,0,2,2,0,0,1,4,2Z" transform="translate(7 6)" fill="none" stroke="#222" stroke-linecap="round" stroke-linejoin="round" stroke-width="1.5"/>
      <path id="Vector-2" data-name="Vector" d="M11,0H7C2,0,0,2,0,7v6c0,5,2,7,7,7h6c5,0,7-2,7-7V8" transform="translate(2 2)" fill="none" stroke="#222" stroke-linecap="round" stroke-linejoin="round" stroke-width="1.5"/>
      <path id="Vector-3" data-name="Vector" d="M0,0H5.5" transform="translate(15.75 5)" fill="none" stroke="#222" stroke-linecap="round" stroke-width="1.5"/>
      <path id="Vector-4" data-name="Vector" d="M0,5.5V0" transform="translate(18.5 2.25)" fill="none" stroke="#222" stroke-linecap="round" stroke-width="1.5"/>
      <path id="Vector-5" data-name="Vector" d="M0,6.953l4.93-3.31a2.253,2.253,0,0,1,2.64.14l.33.29a2.229,2.229,0,0,0,2.82,0L14.88.5A2.229,2.229,0,0,1,17.7.5l1.63,1.4" transform="translate(2.67 11.998)" fill="none" stroke="#222" stroke-linecap="round" stroke-linejoin="round" stroke-width="1.5"/>
      <path id="Vector-6" data-name="Vector" d="M0,0H24V24H0Z" fill="none" opacity="0"/>
    </g>
  </g>
</svg>
